<svg width="24" height="24" viewBox="0 0 24 24" fill="none" xmlns="http://www.w3.org/2000/svg">
<path d="M20.496 6.1061L12.523 2.1061C12.3843 2.03604 12.2311 1.99937 12.0757 1.99903C11.9204 1.99868 11.767 2.03466 11.628 2.1041L3.60101 6.1041C3.30401 6.2541 3.09901 6.5411 3.05701 6.8711C3.04401 6.9681 1.91201 16.6121 11.598 21.8791C11.7469 21.9603 11.9141 22.0021 12.0837 22.0005C12.2533 21.999 12.4197 21.9541 12.567 21.8701C21.874 16.6111 21.081 7.2971 21.043 6.9031C21.0266 6.73485 20.9679 6.57349 20.8722 6.43411C20.7765 6.29473 20.6471 6.18188 20.496 6.1061Z" fill="white"/>
</svg>
