<svg width="89" height="24" viewBox="0 0 89 24" fill="none" xmlns="http://www.w3.org/2000/svg">
<g clip-path="url(#clip0_1681_4031)">
<path d="M23.9896 0H0V24H23.9896V0Z" fill="#18A0FB"/>
<path d="M17.992 7.45332L17.2425 7.88621V7.88643H17.2423L16.4929 8.3191V8.31932H16.4926L15.7432 7.88643H15.743L14.9935 7.45332H14.9933L14.2438 7.02043H14.2436L13.4942 6.58732H13.494L12.7445 6.15443H12.7443L11.9948 5.72132L8.99613 7.45332L8.24646 7.88643L7.49678 8.31932L6.74711 7.88643L5.99744 7.45332L11.2452 4.42243L11.9948 3.98932L12.7443 4.42243H12.7445L13.494 4.85532H13.4942L14.2436 5.28843H14.2438L14.9933 5.72132H14.9935L15.743 6.15443H15.7432L16.4926 6.58732H16.4929L17.2423 7.02043H17.2425L17.992 7.45332Z" fill="white"/>
<path d="M15.7432 9.61842V11.3506L14.2443 10.4844H14.2436L13.4941 10.0513H13.4939L12.7445 9.61842H12.7442L11.9948 9.18531L10.4954 10.0513L8.99609 9.18531L11.2451 7.88642L11.9948 7.45331L12.7442 7.88642H12.7445L13.4939 8.31931H13.4941L14.2436 8.75242H14.2438L14.9933 9.18531H14.9935L15.7432 9.61842Z" fill="white"/>
<path d="M15.7431 13.9487V15.6807H15.7429L14.9934 16.1136H14.9932L14.2438 16.5467H14.2435L13.4941 16.9796H13.4939L12.7444 17.4127H12.7442L11.9947 17.8456L7.4967 15.2476V10.0513L8.24616 10.4842L8.24638 10.4844L8.99583 10.9173H8.99605V14.3816L9.74573 14.8147L11.9947 16.1136L12.7442 15.6807H12.7444L13.4939 15.2476H13.4941L14.2435 14.8147H14.2438L14.9932 14.3816H14.9934L15.7431 13.9487Z" fill="white"/>
<path d="M19.4915 8.3193V16.9795H19.4913L18.7418 17.4126H18.7416L17.9921 17.8455H17.9919L17.2425 18.2786H17.2422L16.4928 18.7115H16.4926L15.7431 19.1446H15.7429L14.9934 19.5775H14.9932L14.2438 20.0106V18.2786L14.9932 17.8455H14.9934L15.7429 17.4126H15.7431L16.4926 16.9795H16.4928L17.2422 16.5466H17.2425L17.9919 16.1135H17.9921V10.0515L17.2425 10.4844L16.4928 10.9173V9.18508L17.2422 8.75241H17.2425V8.75219L17.9919 8.3193H17.9921V8.31908L18.7416 7.88641H18.7418L19.4915 8.3193Z" fill="white"/>
<path d="M15.7429 9.61841L14.9935 10.0513L14.2438 10.4844L13.4941 10.9173L12.7447 11.3504L11.9948 11.7833L11.2451 11.3504L5.24772 7.88641L4.49805 8.3193V16.9795L5.99739 17.8462L6.74707 18.2793L9.74576 20.0113V18.2786L8.99609 17.8455L5.99739 16.1135V10.9175V10.0509L6.74685 10.4837L7.4963 10.9164L8.24575 11.3493L8.99609 11.7835L9.74554 12.2166L10.495 12.6495L11.2447 13.0826V16.4826L11.9948 16.9169L12.7442 16.4837V13.0837L13.4939 12.6506L14.2436 12.218L14.9935 11.7835L15.7432 11.3509V9.61841H15.7429Z" fill="white"/>
<path d="M36.1057 17.3275C35.4778 17.6729 34.6806 17.8455 33.714 17.8455C32.9736 17.8455 32.2892 17.7106 31.6609 17.4406C31.0482 17.1813 30.4926 16.8037 30.0259 16.3295C29.5631 15.8576 29.1955 15.3009 28.943 14.69C28.6836 14.0678 28.5538 13.3989 28.5538 12.6835C28.5538 11.9681 28.6836 11.2962 28.943 10.6678C29.1952 10.0514 29.5626 9.48874 30.0254 9.00998C30.4935 8.52846 31.0521 8.14428 31.6691 7.87953C32.3035 7.60353 32.9911 7.46538 33.7318 7.46509C34.6732 7.46509 35.4546 7.62213 36.0761 7.9362C36.6917 8.24572 37.2441 8.66737 37.7052 9.17953L36.2927 10.7055C35.9616 10.3577 35.5847 10.0566 35.1723 9.81064C34.7769 9.57835 34.2904 9.4622 33.7129 9.4622C33.3156 9.45836 32.9227 9.54531 32.5641 9.71642C32.2189 9.88125 31.9113 10.1153 31.6603 10.404C31.4039 10.7018 31.203 11.0432 31.0672 11.412C30.9206 11.8067 30.8473 12.2249 30.8506 12.646C30.8506 13.0981 30.9228 13.5189 31.0672 13.9082C31.2032 14.2839 31.411 14.6294 31.6791 14.9255C31.9439 15.2154 32.2641 15.4492 32.6207 15.6131C32.9853 15.7821 33.3874 15.8666 33.8271 15.8666C34.3666 15.8666 34.8404 15.7504 35.2487 15.518C35.6729 15.2732 36.0623 14.9726 36.4064 14.624L37.7812 15.9795C37.3046 16.5222 36.7377 16.9783 36.1057 17.3275Z" fill="#18A0FB"/>
<path d="M48.8041 7.94998C49.3505 7.62657 50.0006 7.46494 50.7543 7.46509C51.8472 7.46509 52.7012 7.79479 53.3165 8.4542C53.9318 9.11361 54.2396 10.0524 54.2399 11.2706V17.8262H51.9425V11.9811C51.9425 11.1916 51.7675 10.5901 51.4176 10.1766C51.0677 9.76316 50.574 9.55613 49.9367 9.55553C49.3116 9.55553 48.8024 9.76546 48.4089 10.1853C48.0154 10.6052 47.8186 11.216 47.8185 12.0178V17.8269H45.521V11.9622C45.521 11.1853 45.3461 10.5901 44.9962 10.1766C44.6462 9.76316 44.1523 9.55613 43.5144 9.55553C42.8776 9.55553 42.3652 9.77487 41.9772 10.2135C41.5893 10.6522 41.3956 11.2596 41.3962 12.0358V17.8269H39.0996V7.46509H41.3971V9.19509C41.5588 8.96875 41.7347 8.75298 41.9239 8.54909C42.1183 8.34084 42.3361 8.15582 42.573 7.99775C42.8285 7.82788 43.1076 7.69654 43.4013 7.60798C43.7084 7.51287 44.0503 7.46524 44.4271 7.46509C45.1422 7.46509 45.7475 7.62672 46.2432 7.94998C46.7323 8.2661 47.126 8.70973 47.3818 9.23309C47.7837 8.70094 48.2578 8.27324 48.8041 7.94998Z" fill="#18A0FB"/>
<path d="M55.9912 17.8269V3.86664H58.2884V17.8266L55.9912 17.8269Z" fill="#18A0FB"/>
<path d="M66.1975 17.8269V16.3949C65.8585 16.7971 65.4254 17.1362 64.8983 17.4122C64.3711 17.6882 63.7308 17.8264 62.9773 17.8269C62.5183 17.8294 62.0615 17.7627 61.6223 17.6289C61.1954 17.4972 60.822 17.3025 60.5019 17.0449C60.1786 16.7838 59.9152 16.4562 59.7296 16.0842C59.5347 15.7011 59.4374 15.2584 59.4377 14.756V14.7182C59.4377 14.1784 59.5382 13.7074 59.7392 13.3053C59.9344 12.9101 60.2218 12.5677 60.577 12.3069C60.9348 12.0432 61.3616 11.8453 61.8576 11.7133C62.3535 11.5813 62.8902 11.5154 63.4678 11.5155C64.0702 11.5155 64.5817 11.5532 65.0024 11.6287C65.4131 11.7019 65.8185 11.8025 66.2157 11.93V11.6855C66.2157 10.995 66.0054 10.4675 65.5848 10.1031C65.1643 9.73866 64.5588 9.55614 63.7683 9.55555C63.2034 9.55555 62.7012 9.61206 62.2618 9.7251C61.8059 9.84383 61.3591 9.99511 60.9249 10.1778L60.3029 8.35043C60.8496 8.10126 61.4166 7.89955 61.9977 7.74755C62.5753 7.59688 63.272 7.52155 64.0879 7.52155C65.5688 7.52155 66.6673 7.88888 67.3834 8.62355C68.0995 9.35821 68.4573 10.3912 68.4567 11.7227V17.8269H66.1975ZM66.2539 13.4C65.9651 13.287 65.6231 13.1927 65.2277 13.1173C64.8147 13.0404 64.3954 13.0026 63.9753 13.0044C63.2598 13.0044 62.7011 13.1426 62.2994 13.4189C61.8976 13.6952 61.6968 14.0908 61.6968 14.6058V14.6433C61.6968 15.121 61.8819 15.4852 62.2521 15.736C62.6223 15.9868 63.0774 16.1127 63.6175 16.1138C63.9715 16.1172 64.3239 16.0664 64.6626 15.9631C64.9645 15.8719 65.2481 15.7284 65.5004 15.5391C65.733 15.3642 65.9229 15.1387 66.0558 14.8798C66.1896 14.6141 66.2574 14.3201 66.2534 14.0227L66.2539 13.4Z" fill="#18A0FB"/>
<path d="M79.9345 14.8502C79.6771 15.4906 79.3319 16.0338 78.8987 16.4797C78.4791 16.9169 77.972 17.2607 77.4107 17.4889C76.8638 17.7126 76.2786 17.8277 75.6877 17.828C74.8715 17.828 74.1935 17.6521 73.6539 17.3004C73.1143 16.9487 72.6686 16.5405 72.3169 16.0757L72.3358 17.828H70.0388V3.86664H72.3363V9.33019C72.6975 8.80452 73.1567 8.35353 73.6888 8.00197C74.2272 7.64419 74.8973 7.46523 75.699 7.46508C76.2859 7.46462 76.8671 7.57985 77.4094 7.80419C77.9657 8.03389 78.468 8.37721 78.8841 8.81219C79.316 9.25812 79.6637 9.8013 79.927 10.4417C80.1903 11.0822 80.3215 11.8169 80.3206 12.646C80.3206 13.4746 80.1919 14.2093 79.9345 14.8502ZM77.7972 11.3169C77.6466 10.9213 77.4426 10.5854 77.1853 10.3091C76.9292 10.0336 76.6187 9.81424 76.2734 9.66505C75.9282 9.51586 75.5558 9.44005 75.1797 9.44242C74.7979 9.44097 74.4199 9.51788 74.0691 9.66842C73.719 9.81804 73.4045 10.0398 73.1459 10.3193C72.8751 10.6133 72.6612 10.9551 72.5151 11.3273C72.3581 11.7165 72.2796 12.156 72.2796 12.646C72.2796 13.1359 72.3581 13.5755 72.5151 13.9646C72.6611 14.3368 72.875 14.6786 73.1459 14.9726C73.4046 15.2514 73.719 15.4727 74.0686 15.6222C74.4195 15.7727 74.7975 15.8496 75.1792 15.8482C75.5553 15.8506 75.9278 15.7747 76.273 15.6256C76.6182 15.4764 76.9287 15.2571 77.1848 14.9815C77.4419 14.7055 77.6459 14.3696 77.7968 13.9737C77.9477 13.5779 78.023 13.1352 78.0227 12.6455C78.023 12.1559 77.9478 11.7133 77.7972 11.3177V11.3169Z" fill="#18A0FB"/>
<path d="M88.3426 16.0747C88.1619 16.4546 87.8945 16.7868 87.5619 17.0444C87.2291 17.3019 86.8367 17.4966 86.3846 17.6284C85.9131 17.7631 85.4248 17.8298 84.9345 17.8264C84.219 17.8264 83.494 17.7005 82.7595 17.4487C82.0209 17.1954 81.3301 16.8198 80.7159 16.3375L81.7328 14.7927C82.2723 15.1949 82.8215 15.4995 83.3806 15.7064C83.9396 15.9134 84.4762 16.0171 84.9905 16.0175C85.4804 16.0175 85.8601 15.9202 86.1298 15.7255C86.3995 15.5309 86.5344 15.2703 86.5347 14.9438V14.906C86.5376 14.7265 86.4739 14.5524 86.3559 14.4171C86.2364 14.279 86.0735 14.1566 85.8673 14.0498C85.6377 13.9342 85.3981 13.8396 85.1516 13.7671C84.8815 13.6856 84.6021 13.6009 84.3135 13.5129C83.9495 13.3997 83.5823 13.2738 83.212 13.1351C82.8552 13.0052 82.5189 12.825 82.2131 12.6C81.9192 12.3817 81.6726 12.1062 81.4881 11.79C81.2997 11.4695 81.2055 11.0707 81.2055 10.5935V10.5555C81.2055 10.0908 81.2966 9.67006 81.4787 9.29332C81.6564 8.92169 81.9135 8.59366 82.2319 8.33243C82.552 8.06858 82.9285 7.86762 83.3617 7.72954C83.8095 7.58928 84.2765 7.51941 84.7457 7.52243C85.3913 7.52486 86.0327 7.62595 86.6478 7.82221C87.2679 8.01389 87.8576 8.29299 88.399 8.6511L87.4952 10.2722C87.0374 9.99265 86.5513 9.76219 86.0452 9.58466C85.5556 9.41517 85.104 9.33036 84.6902 9.33021C84.2507 9.33021 83.9086 9.42443 83.664 9.61288C83.4194 9.80132 83.297 10.0399 83.297 10.3287V10.3664C83.2964 10.452 83.3127 10.5368 83.345 10.616C83.3773 10.6952 83.4249 10.7673 83.4852 10.828C83.6108 10.9597 83.7771 11.079 83.9843 11.186C84.2155 11.303 84.4545 11.4037 84.6998 11.4873C84.9696 11.5815 85.2489 11.6726 85.5378 11.7604C85.902 11.8735 86.266 12.0054 86.63 12.1562C86.9813 12.2997 87.3134 12.4863 87.6187 12.7118C87.9106 12.9282 88.1569 13.2 88.3437 13.5118C88.5318 13.8258 88.6259 14.2089 88.6261 14.6609V14.6987C88.6253 15.2267 88.5308 15.6853 88.3426 16.0747Z" fill="#18A0FB"/>
</g>
<defs>
<clipPath id="clip0_1681_4031">
<rect width="88.625" height="24" fill="white"/>
</clipPath>
</defs>
</svg>
