<svg width="54" height="54" viewBox="0 0 54 54" fill="none" xmlns="http://www.w3.org/2000/svg">
<path d="M27 0.0615234C12.296 0.0615234 0.333313 12.0242 0.333313 26.7282C0.333313 41.4322 12.296 53.3949 27 53.3949C41.704 53.3949 53.6666 41.4322 53.6666 26.7282C53.6666 12.0242 41.704 0.0615234 27 0.0615234ZM5.66665 26.7282C5.66665 24.3309 6.08265 22.0295 6.81598 19.8775L11 24.0615L16.3333 29.3949V34.7282L21.6666 40.0615L24.3333 42.7282V47.8775C13.8293 46.5575 5.66665 37.5869 5.66665 26.7282ZM43.88 39.7229C42.1386 38.3202 39.4986 37.3949 37.6666 37.3949V34.7282C37.6666 33.3137 37.1047 31.9571 36.1045 30.957C35.1044 29.9568 33.7478 29.3949 32.3333 29.3949H21.6666V21.3949C23.0811 21.3949 24.4377 20.833 25.4379 19.8328C26.4381 18.8326 27 17.476 27 16.0615V13.3949H29.6666C31.0811 13.3949 32.4377 12.833 33.4379 11.8328C34.4381 10.8326 35 9.47601 35 8.06152V6.96552C42.808 10.1362 48.3333 17.7949 48.3333 26.7282C48.3328 31.4341 46.766 36.0059 43.88 39.7229Z" fill="#252A38"/>
</svg>
