<svg width="64" height="65" viewBox="0 0 64 65" fill="none" xmlns="http://www.w3.org/2000/svg">
<path d="M36.552 6.84286C36.3048 6.59475 36.011 6.39798 35.6874 6.26388C35.3638 6.12979 35.0169 6.06102 34.6667 6.06153H16C13.0587 6.06153 10.6667 8.45353 10.6667 11.3949V54.0615C10.6667 57.0029 13.0587 59.3949 16 59.3949H48C50.9414 59.3949 53.3334 57.0029 53.3334 54.0615V24.7282C53.3339 24.3779 53.2651 24.031 53.131 23.7075C52.9969 23.3839 52.8001 23.0901 52.552 22.8429L36.552 6.84286ZM16 11.3949H33.5627L48 25.8322L48.0054 50.2962L41.1574 43.4482C42.0907 41.8615 42.6667 40.0322 42.6667 38.0615C42.6667 32.1789 37.8827 27.3949 32 27.3949C26.1174 27.3949 21.3334 32.1789 21.3334 38.0615C21.3334 43.9442 26.1174 48.7282 32 48.7282C33.9707 48.7282 35.8 48.1522 37.3867 47.2189L44.2294 54.0615H16V11.3949ZM32 43.3949C29.0587 43.3949 26.6667 41.0029 26.6667 38.0615C26.6667 35.1202 29.0587 32.7282 32 32.7282C34.9414 32.7282 37.3334 35.1202 37.3334 38.0615C37.3334 41.0029 34.9414 43.3949 32 43.3949Z" fill="#515560"/>
</svg>
