<svg width="64" height="65" viewBox="0 0 64 65" fill="none" xmlns="http://www.w3.org/2000/svg">
<path d="M58.4746 31.6802C57.936 30.3789 56.7813 30.0669 56 29.9922V22.0615C56 19.1202 53.608 16.7282 50.6666 16.7282H34.6666V13.0215C35.48 12.2909 36 11.2402 36 10.0615C36 9.00066 35.5785 7.98324 34.8284 7.2331C34.0783 6.48295 33.0608 6.06152 32 6.06152C30.9391 6.06152 29.9217 6.48295 29.1715 7.2331C28.4214 7.98324 28 9.00066 28 10.0615C28 11.2402 28.52 12.2909 29.3333 13.0215V16.7282H13.3333C10.392 16.7282 7.99997 19.1202 7.99997 22.0615V30.0535L7.78131 30.0695C7.10923 30.118 6.48044 30.4192 6.02135 30.9124C5.56226 31.4056 5.30691 32.0544 5.30664 32.7282V38.0615C5.30664 38.7688 5.58759 39.447 6.08769 39.9471C6.58779 40.4472 7.26606 40.7282 7.97331 40.7282H7.99997V54.0615C7.99997 57.0029 10.392 59.3949 13.3333 59.3949H50.6666C53.608 59.3949 56 57.0029 56 54.0615V40.7282C56.7072 40.7282 57.3855 40.4472 57.8856 39.9471C58.3857 39.447 58.6666 38.7688 58.6666 38.0615V32.8935C58.6973 32.4797 58.6316 32.0643 58.4746 31.6802ZM13.3333 54.0615V22.0615H50.6666L50.6693 32.7175L50.6666 32.7282V38.0615L50.6693 38.0749L50.672 54.0615H13.3333Z" fill="#515560"/>
<path d="M22.6667 38.0622C24.8758 38.0622 26.6667 35.6744 26.6667 32.7288C26.6667 29.7833 24.8758 27.3955 22.6667 27.3955C20.4575 27.3955 18.6667 29.7833 18.6667 32.7288C18.6667 35.6744 20.4575 38.0622 22.6667 38.0622Z" fill="#515560"/>
<path d="M41.3333 38.0622C43.5425 38.0622 45.3333 35.6744 45.3333 32.7288C45.3333 29.7833 43.5425 27.3955 41.3333 27.3955C39.1242 27.3955 37.3333 29.7833 37.3333 32.7288C37.3333 35.6744 39.1242 38.0622 41.3333 38.0622Z" fill="#515560"/>
<path d="M21.3333 43.3955H42.6666V48.7288H21.3333V43.3955Z" fill="#515560"/>
</svg>
