<svg width="40" height="40" viewBox="0 0 40 40" fill="none" xmlns="http://www.w3.org/2000/svg">
<path d="M8.33341 3.33325H6.66675V6.66659H8.33341V8.33325C8.33658 10.3579 8.86557 12.3471 9.86856 14.1059C10.8715 15.8647 12.3141 17.3329 14.0551 18.3666C14.6467 18.7166 15.0001 19.2783 15.0001 19.8683V20.1316C15.0001 20.7216 14.6467 21.2833 14.0567 21.6316C12.3155 22.6655 10.8726 24.1339 9.8693 25.8929C8.86603 27.652 8.33679 29.6415 8.33341 31.6666V33.3333H6.66675V36.6666H33.3334V33.3333H31.6667V31.6666C31.6634 29.6415 31.1341 27.652 30.1309 25.8929C29.1276 24.1339 27.6847 22.6655 25.9434 21.6316C25.3534 21.2849 25.0001 20.7233 25.0001 20.1316V19.8683C25.0001 19.2783 25.3534 18.7183 25.9434 18.3683C27.6847 17.3344 29.1276 15.866 30.1309 14.1069C31.1341 12.3478 31.6634 10.3583 31.6667 8.33325V6.66659H33.3334V3.33325H8.33341ZM28.3334 8.33325C28.3312 9.77884 27.9538 11.1991 27.238 12.455C26.5223 13.711 25.4927 14.7596 24.2501 15.4983C23.1622 16.1315 22.3422 17.1393 21.9434 18.3333H18.0567C17.657 17.1389 16.8366 16.1307 15.7484 15.4966C14.5061 14.7581 13.4769 13.7097 12.7614 12.4541C12.0459 11.1984 11.6687 9.77846 11.6667 8.33325V6.66659H28.3334V8.33325Z" fill="#959595"/>
</svg>
