<svg width="64" height="64" viewBox="0 0 64 64" fill="none" xmlns="http://www.w3.org/2000/svg">
<path d="M55.9867 18.4001C55.9424 17.952 55.785 17.5224 55.5295 17.1516C55.2739 16.7808 54.9284 16.481 54.5253 16.2801L33.192 5.61345C32.8215 5.42806 32.413 5.33154 31.9987 5.33154C31.5844 5.33154 31.1758 5.42806 30.8053 5.61345L9.47201 16.2801C9.07007 16.4821 8.72564 16.7824 8.47065 17.153C8.21566 17.5236 8.05837 17.9525 8.01334 18.4001C7.98401 18.6855 5.45068 47.1121 30.9173 58.4375C31.2576 58.591 31.6267 58.6704 32 58.6704C32.3733 58.6704 32.7424 58.591 33.0827 58.4375C58.5493 47.1121 56.016 18.6881 55.9867 18.4001ZM32 53.0588C13.9493 44.3335 13.096 25.7121 13.2427 20.3601L32 10.9815L50.744 20.3548C50.8427 25.6588 49.8693 44.4028 32 53.0588Z" fill="#092D49"/>
<path d="M29.3333 33.5627L23.2187 27.4481L19.448 31.2187L29.3333 41.1041L44.552 25.8854L40.7813 22.1147L29.3333 33.5627Z" fill="#092D49"/>
</svg>
