<svg width="24" height="24" viewBox="0 0 24 24" fill="none" xmlns="http://www.w3.org/2000/svg">
<path d="M20.496 6.10598L12.523 2.10598C12.3843 2.03592 12.2311 1.99925 12.0757 1.9989C11.9204 1.99856 11.767 2.03454 11.628 2.10398L3.60101 6.10398C3.30401 6.25398 3.09901 6.54098 3.05701 6.87098C3.04401 6.96798 1.91201 16.612 11.598 21.879C11.7469 21.9602 11.9141 22.002 12.0837 22.0004C12.2533 21.9988 12.4197 21.9539 12.567 21.87C21.874 16.611 21.081 7.29698 21.043 6.90298C21.0266 6.73472 20.9679 6.57337 20.8722 6.43399C20.7765 6.29461 20.6471 6.18176 20.496 6.10598Z" fill="white"/>
</svg>
