<svg width="18" height="18" viewBox="0 0 18 18" fill="none" xmlns="http://www.w3.org/2000/svg">
<path d="M0.666626 8.16669H4.83329V9.83335H0.666626V8.16669ZM13.1666 8.16669H17.3333V9.83335H13.1666V8.16669ZM8.16663 13.1667H9.83329V17.3334H8.16663V13.1667ZM8.16663 0.666687H9.83329V4.83335H8.16663V0.666687ZM2.51829 3.69669L3.69663 2.51835L6.64329 5.46502L5.46496 6.64335L2.51829 3.69669ZM15.4816 14.3034L14.3033 15.4817L11.3566 12.535L12.535 11.3567L15.4816 14.3034ZM5.46496 11.3567L6.64329 12.535L3.69663 15.4817L2.51829 14.3034L5.46496 11.3567ZM11.3566 5.46419L14.3033 2.51835L15.4816 3.69752L12.535 6.64335L11.3566 5.46419Z" fill="white"/>
</svg>
