<svg width="64" height="65" viewBox="0 0 64 65" fill="none" xmlns="http://www.w3.org/2000/svg">
<path d="M22.5734 30.8434C25.5947 27.822 30.864 27.822 33.8854 30.8434L35.7707 32.7287L39.5414 28.958L37.656 27.0727C35.1414 24.5553 31.792 23.166 28.2294 23.166C24.6667 23.166 21.3174 24.5553 18.8027 27.0727L13.144 32.7287C10.6488 35.2319 9.24768 38.6222 9.24768 42.1567C9.24768 45.6911 10.6488 49.0814 13.144 51.5847C14.381 52.8234 15.8506 53.8056 17.4683 54.4746C19.0861 55.1437 20.8201 55.4865 22.5707 55.4833C24.3218 55.487 26.0563 55.1444 27.6746 54.4754C29.2928 53.8063 30.7628 52.8239 32 51.5847L33.8854 49.6994L30.1147 45.9287L28.2294 47.814C26.7266 49.31 24.6925 50.1499 22.572 50.1499C20.4516 50.1499 18.4174 49.31 16.9147 47.814C15.4174 46.312 14.5766 44.2776 14.5766 42.1567C14.5766 40.0358 15.4174 38.0014 16.9147 36.4993L22.5734 30.8434Z" fill="#515560"/>
<path d="M32 13.8722L30.1146 15.7575L33.8853 19.5282L35.7706 17.6428C37.2734 16.1468 39.3075 15.3069 41.4279 15.3069C43.5484 15.3069 45.5825 16.1468 47.0853 17.6428C48.5826 19.1449 49.4234 21.1793 49.4234 23.3002C49.4234 25.4211 48.5826 27.4555 47.0853 28.9575L41.4266 34.6135C38.4053 37.6348 33.136 37.6348 30.1146 34.6135L28.2293 32.7282L24.4586 36.4988L26.344 38.3842C28.8586 40.9015 32.208 42.2908 35.7706 42.2908C39.3333 42.2908 42.6826 40.9015 45.1973 38.3842L50.8559 32.7282C53.3512 30.2249 54.7523 26.8346 54.7523 23.3002C54.7523 19.7657 53.3512 16.3754 50.8559 13.8722C48.3534 11.3757 44.9628 9.97363 41.4279 9.97363C37.8931 9.97363 34.5025 11.3757 32 13.8722Z" fill="#515560"/>
</svg>
