<svg width="64" height="64" viewBox="0 0 64 64" fill="none" xmlns="http://www.w3.org/2000/svg">
<path d="M53.72 22.0534L57.888 17.8854L54.1174 14.1147L49.5627 18.6667C46.7627 16.9867 43.4987 16 40 16C29.7094 16 21.3334 24.3734 21.3334 34.6667C21.3334 44.96 29.7094 53.3334 40 53.3334C50.2907 53.3334 58.6667 44.96 58.6667 34.6667C58.6646 29.9894 56.8981 25.4851 53.72 22.0534ZM40 48C32.648 48 26.6667 42.0187 26.6667 34.6667C26.6667 27.3147 32.648 21.3334 40 21.3334C47.352 21.3334 53.3334 27.3147 53.3334 34.6667C53.3334 42.0187 47.352 48 40 48Z" fill="#092D49"/>
<path d="M37.3334 26.6667H42.6667V37.3333H37.3334V26.6667ZM34.6667 8H45.3334V13.3333H34.6667V8ZM8.00004 21.3333H18.6667V26.6667H8.00004V21.3333ZM8.00004 42.6667H18.6667V48H8.00004V42.6667ZM5.33337 32H15.9734V37.3333H5.33337V32Z" fill="#092D49"/>
</svg>
