<svg width="64" height="64" viewBox="0 0 64 64" fill="none" xmlns="http://www.w3.org/2000/svg">
<path d="M32 5.33325C17.296 5.33325 5.33337 17.2959 5.33337 31.9999C5.33337 46.7039 17.296 58.6666 32 58.6666C46.704 58.6666 58.6667 46.7039 58.6667 31.9999C58.6667 17.2959 46.704 5.33325 32 5.33325ZM53.1494 29.3333H45.7787C45.4497 23.4966 43.8168 17.8078 41 12.6853C44.2646 14.2107 47.0903 16.537 49.2145 19.4477C51.3387 22.3584 52.6922 25.759 53.1494 29.3333ZM33.4134 10.7386C36.1734 14.3759 39.8854 20.8186 40.4187 29.3333H24.08C24.4507 22.4106 26.7307 15.9253 30.616 10.7359C31.0747 10.7093 31.5334 10.6666 32 10.6666C32.4774 10.6666 32.944 10.7093 33.4134 10.7386ZM23.168 12.6053C20.544 17.6479 19.0294 23.3653 18.7467 29.3333H10.8507C11.3114 25.7275 12.6844 22.2989 14.8398 19.3717C16.9951 16.4445 19.8616 14.1156 23.168 12.6053ZM10.8507 34.6666H18.7814C19.144 41.0106 20.5547 46.6079 22.9307 51.2799C19.6832 49.7491 16.874 47.4244 14.7626 44.5207C12.6512 41.6169 11.3058 38.2278 10.8507 34.6666ZM30.5334 53.2612C26.7974 48.7332 24.592 42.3892 24.1094 34.6666H40.4107C39.856 42.0612 37.432 48.5226 33.4694 53.2586C32.984 53.2906 32.4987 53.3332 32 53.3332C31.504 53.3332 31.0214 53.2906 30.5334 53.2612ZM41.2294 51.2026C43.776 46.4186 45.3307 40.7999 45.7387 34.6666H53.1467C52.6967 38.198 51.3706 41.5608 49.2892 44.4489C47.2078 47.3369 44.4371 49.6586 41.2294 51.2026Z" fill="#092D49"/>
</svg>
