<svg width="20" height="20" viewBox="0 0 20 20" fill="none" xmlns="http://www.w3.org/2000/svg">
<path d="M1.66663 9.1665H5.83329V10.8332H1.66663V9.1665ZM14.1666 9.1665H18.3333V10.8332H14.1666V9.1665ZM9.16663 14.1665H10.8333V18.3332H9.16663V14.1665ZM9.16663 1.6665H10.8333V5.83317H9.16663V1.6665ZM3.51829 4.6965L4.69663 3.51817L7.64329 6.46484L6.46496 7.64317L3.51829 4.6965ZM16.4816 15.3032L15.3033 16.4815L12.3566 13.5348L13.535 12.3565L16.4816 15.3032ZM6.46496 12.3565L7.64329 13.5348L4.69663 16.4815L3.51829 15.3032L6.46496 12.3565ZM12.3566 6.464L15.3033 3.51817L16.4816 4.69734L13.535 7.64317L12.3566 6.464Z" fill="white"/>
</svg>
